<?xml version="1.0" encoding="UTF-8"?>
<svg version="1.1" xmlns="http://www.w3.org/2000/svg" width="1024" height="1024">
<path d="M0 0 C337.92 0 675.84 0 1024 0 C1024 337.92 1024 675.84 1024 1024 C686.08 1024 348.16 1024 0 1024 C0 686.08 0 348.16 0 0 Z " fill="#E9EAEA" transform="translate(0,0)"/>
<path d="M0 0 C0.84921382 -0.00521549 1.69842765 -0.01043099 2.57337523 -0.01580453 C3.980841 -0.00911236 3.980841 -0.00911236 5.41674042 -0.002285 C6.90564183 -0.00696498 6.90564183 -0.00696498 8.42462206 -0.01173949 C11.77194832 -0.01975752 15.11909521 -0.01338106 18.46642303 -0.00710678 C20.85753232 -0.00981495 23.24864076 -0.0133749 25.63974762 -0.0177269 C31.47287801 -0.02592259 37.30596131 -0.02469163 43.13909042 -0.01890162 C47.87825625 -0.01439155 52.61740765 -0.01376938 57.35657501 -0.01594925 C58.03013937 -0.01625572 58.70370372 -0.01656218 59.39767912 -0.01687793 C60.76585559 -0.01751736 62.13403206 -0.01816579 63.50220853 -0.01882312 C76.34263317 -0.0245312 89.18302928 -0.01796103 102.02344924 -0.00722238 C113.04986495 0.00171357 124.07623855 0.00016166 135.1026535 -0.00905991 C147.89598456 -0.0197541 160.68929059 -0.02398184 173.48262548 -0.01783538 C174.84587192 -0.01719826 176.20911836 -0.01656951 177.57236481 -0.01594925 C178.5785759 -0.01548642 178.5785759 -0.01548642 179.60511449 -0.01501425 C184.34059277 -0.01328475 189.07605523 -0.01620788 193.81153107 -0.02090836 C200.18080693 -0.02709136 206.5500218 -0.0227124 212.91929054 -0.01111984 C215.26310913 -0.00846523 217.60693438 -0.00925189 219.95075035 -0.01364517 C223.13799216 -0.01907056 226.32497436 -0.01230321 229.5121994 -0.002285 C230.45050992 -0.00674645 231.38882043 -0.01120789 232.35556459 -0.01580453 C233.62938533 -0.00798129 233.62938533 -0.00798129 234.92893982 0 C235.66527256 0.0003247 236.40160529 0.00064941 237.16025114 0.00098395 C238.96446991 0.25168228 238.96446991 0.25168228 240.96446991 2.25168228 C241.16258838 5.29312819 241.23359593 8.24365793 241.21843719 11.28635025 C241.22311717 12.70787305 241.22311717 12.70787305 241.22789168 14.15811348 C241.23590865 17.35342769 241.22953367 20.54855394 241.22325897 23.74386978 C241.22596719 26.02660611 241.22952717 28.30934156 241.23387909 30.59207535 C241.24302546 36.80679069 241.23944959 43.02143991 241.23312092 49.23615646 C241.22807253 55.72684793 241.23274912 62.21753357 241.23589325 68.70822525 C241.23976993 80.309251 241.23353781 91.91024645 241.22337458 103.51126742 C241.21443864 114.03738422 241.21599055 124.56345691 241.2252121 135.08957291 C241.23590659 147.30279101 241.23990372 159.51597768 241.23398757 171.72920036 C241.23086257 178.19811055 241.23047302 184.66699033 241.23706055 191.13589859 C241.24281942 197.21626957 241.23886395 203.29655689 241.22727203 209.37691879 C241.22461761 211.61430853 241.22540377 213.85170526 241.22979736 216.08909225 C241.23522351 219.13182941 241.22845451 222.17429471 241.21843719 225.21701431 C241.22512936 226.56027944 241.22512936 226.56027944 241.23195672 227.93068123 C241.19276991 234.02338229 241.19276991 234.02338229 238.96446991 236.25168228 C237.16781384 236.50353128 237.16781384 236.50353128 234.9473505 236.50615788 C234.10223677 236.51199007 233.25712304 236.51782226 232.38639981 236.52383119 C230.98579364 236.5181622 230.98579364 236.5181622 229.5568924 236.51237869 C228.07517466 236.51811701 228.07517466 236.51811701 226.56352323 236.52397126 C223.23235661 236.53434273 219.90136103 236.53030126 216.5701828 236.52634048 C214.19054758 236.53068466 211.81091376 236.53586682 209.43128204 236.54182816 C203.62589197 236.55386397 197.82055571 236.55636573 192.01515467 236.55402789 C187.29792631 236.55224734 182.58071201 236.55398871 177.86348534 236.55825233 C177.19298506 236.55884752 176.52248479 236.55944271 175.83166633 236.56005594 C174.46969259 236.56126765 173.10771885 236.56248178 171.74574511 236.56369831 C158.96299701 236.57458356 146.18027526 236.57240673 133.39752566 236.56631347 C121.69523339 236.56114362 109.99302435 236.57239976 98.29074854 236.59141169 C86.28428109 236.61076876 74.27785305 236.61904983 62.27136987 236.61528844 C55.52686637 236.61337312 48.7824337 236.61589596 42.03794289 236.63000298 C35.69735713 236.6425302 29.35693855 236.64068577 23.01635551 236.62759209 C20.68424296 236.62521559 18.35211882 236.62799906 16.02001953 236.63621521 C12.84615955 236.64659383 9.67286982 236.63865371 6.49903107 236.62590408 C5.10177098 236.63696551 5.10177098 236.63696551 3.67628342 236.6482504 C2.82856194 236.64104386 1.98084046 236.63383731 1.10743046 236.62641239 C0.37451521 236.62646741 -0.35840005 236.62652242 -1.11352485 236.62657911 C-3.64551379 236.13270188 -4.520137 235.31870135 -6.03553009 233.25168228 C-6.32858095 230.14610149 -6.43553064 227.24142987 -6.40975189 224.13472366 C-6.4137263 223.19027093 -6.4177007 222.24581819 -6.42179555 221.27274567 C-6.43145347 218.09426807 -6.41957926 214.91623169 -6.40784454 211.73776627 C-6.41027134 209.46473397 -6.41398956 207.19170274 -6.41890717 204.91867447 C-6.42833464 198.73497405 -6.41887537 192.55143138 -6.40557504 186.36774325 C-6.39428466 179.90775567 -6.39836614 173.44777613 -6.40032196 166.98778152 C-6.40120564 156.13895092 -6.3901791 145.2901921 -6.37171173 134.44137955 C-6.35270263 123.2714385 -6.34562519 112.10156999 -6.35120392 100.93161392 C-6.357902 87.48061251 -6.35462395 74.02966505 -6.34210014 60.57866478 C-6.33744481 55.43633873 -6.33658432 50.29403238 -6.33868599 45.15170479 C-6.34056374 39.10168186 -6.33250466 33.05175253 -6.3166256 27.00175095 C-6.31236772 24.77565078 -6.31154221 22.54954115 -6.3143158 20.32343864 C-6.3175166 17.29607398 -6.30850914 14.26899276 -6.2962265 11.24165726 C-6.30000583 10.35072024 -6.30378515 9.45978323 -6.307679 8.54184812 C-6.26657145 2.85523673 -6.13658249 0.00270608 0 0 Z " fill="#E9EAE9" transform="translate(394.03553009033203,295.74831771850586)"/>
<path d="M0 0 C4.08578579 1.64415958 6.93449664 4.56793834 10.0625 7.5625 C14.95416878 12.16800168 19.9785935 16.49082166 25.22265625 20.6953125 C28.95005289 23.78837019 32.49654831 27.05940395 36.02954102 30.37133789 C38.28000926 32.47215668 40.42895036 34.28596691 43 36 C46.85432118 35.70587056 48.90158785 34.61065955 51.6875 32 C52.37585938 31.36835938 53.06421875 30.73671875 53.7734375 30.0859375 C54.50820313 29.39757812 55.24296875 28.70921875 56 28 C61.92028459 22.59110212 67.93676624 17.38502893 74.1796875 12.3515625 C78.19051236 9.00735673 81.98591774 5.45229849 85.78515625 1.87109375 C88 0 88 0 90 0 C91.72721896 1.62852073 93.36720667 3.28012435 95 5 C98.79166409 8.98966222 102.69823368 12.62236343 107 16.0625 C112.46311768 20.45560015 117.55808288 25.17512688 122.65771484 29.98217773 C126.3473807 33.4599403 130.07465312 36.86437605 133.921875 40.16796875 C135.64635614 41.68823502 137.33521584 43.23250271 139.015625 44.80078125 C139.56847168 45.31624512 140.12131836 45.83170898 140.69091797 46.36279297 C141.76576427 47.36783191 142.83798553 48.37569064 143.90673828 49.38720703 C148.75171027 53.91557387 153.76359186 57.81087349 159 62 C159 71.24 159 80.48 159 90 C83.43 90 7.86 90 -70 90 C-70 63 -70 63 -64 55.75 C-60.3828125 53.1484375 -60.3828125 53.1484375 -58.60644531 52.03027344 C-56.49900676 50.67869431 -54.71042663 49.07219366 -52.875 47.375 C-52.26398438 46.84648437 -51.65296875 46.31796875 -51.0234375 45.7734375 C-48.48498829 43.54861908 -45.99358224 41.27496681 -43.5 39 C-40.38092989 36.15475772 -37.25244609 33.3280042 -34.0625 30.5625 C-30.16753518 27.17730563 -26.36977339 23.68914728 -22.5715332 20.1965332 C-15.13725342 13.3625296 -7.62340355 6.62256566 0 0 Z " fill="#EAEAEA" transform="translate(467,433)"/>
<path d="M0 0 C0.84921382 -0.00521549 1.69842765 -0.01043099 2.57337523 -0.01580453 C3.980841 -0.00911236 3.980841 -0.00911236 5.41674042 -0.002285 C6.90564183 -0.00696498 6.90564183 -0.00696498 8.42462206 -0.01173949 C11.77194832 -0.01975752 15.11909521 -0.01338106 18.46642303 -0.00710678 C20.85753232 -0.00981495 23.24864076 -0.0133749 25.63974762 -0.0177269 C31.47287801 -0.02592259 37.30596131 -0.02469163 43.13909042 -0.01890162 C47.87825625 -0.01439155 52.61740765 -0.01376938 57.35657501 -0.01594925 C58.03013937 -0.01625572 58.70370372 -0.01656218 59.39767912 -0.01687793 C60.76585559 -0.01751736 62.13403206 -0.01816579 63.50220853 -0.01882312 C76.34263317 -0.0245312 89.18302928 -0.01796103 102.02344924 -0.00722238 C113.04986495 0.00171357 124.07623855 0.00016166 135.1026535 -0.00905991 C147.89598456 -0.0197541 160.68929059 -0.02398184 173.48262548 -0.01783538 C174.84587192 -0.01719826 176.20911836 -0.01656951 177.57236481 -0.01594925 C178.5785759 -0.01548642 178.5785759 -0.01548642 179.60511449 -0.01501425 C184.34059277 -0.01328475 189.07605523 -0.01620788 193.81153107 -0.02090836 C200.18080693 -0.02709136 206.5500218 -0.0227124 212.91929054 -0.01111984 C215.26310913 -0.00846523 217.60693438 -0.00925189 219.95075035 -0.01364517 C223.13799216 -0.01907056 226.32497436 -0.01230321 229.5121994 -0.002285 C230.45050992 -0.00674645 231.38882043 -0.01120789 232.35556459 -0.01580453 C233.62938533 -0.00798129 233.62938533 -0.00798129 234.92893982 0 C235.66527256 0.0003247 236.40160529 0.00064941 237.16025114 0.00098395 C238.96446991 0.25168228 238.96446991 0.25168228 240.96446991 2.25168228 C241.16258838 5.29312819 241.23359593 8.24365793 241.21843719 11.28635025 C241.22311717 12.70787305 241.22311717 12.70787305 241.22789168 14.15811348 C241.23590865 17.35342769 241.22953367 20.54855394 241.22325897 23.74386978 C241.22596719 26.02660611 241.22952717 28.30934156 241.23387909 30.59207535 C241.24302546 36.80679069 241.23944959 43.02143991 241.23312092 49.23615646 C241.22807253 55.72684793 241.23274912 62.21753357 241.23589325 68.70822525 C241.23976993 80.309251 241.23353781 91.91024645 241.22337458 103.51126742 C241.21443864 114.03738422 241.21599055 124.56345691 241.2252121 135.08957291 C241.23590659 147.30279101 241.23990372 159.51597768 241.23398757 171.72920036 C241.23086257 178.19811055 241.23047302 184.66699033 241.23706055 191.13589859 C241.24281942 197.21626957 241.23886395 203.29655689 241.22727203 209.37691879 C241.22461761 211.61430853 241.22540377 213.85170526 241.22979736 216.08909225 C241.23522351 219.13182941 241.22845451 222.17429471 241.21843719 225.21701431 C241.22512936 226.56027944 241.22512936 226.56027944 241.23195672 227.93068123 C241.19276991 234.02338229 241.19276991 234.02338229 238.96446991 236.25168228 C237.16781384 236.50353128 237.16781384 236.50353128 234.9473505 236.50615788 C234.10223677 236.51199007 233.25712304 236.51782226 232.38639981 236.52383119 C230.98579364 236.5181622 230.98579364 236.5181622 229.5568924 236.51237869 C228.07517466 236.51811701 228.07517466 236.51811701 226.56352323 236.52397126 C223.23235661 236.53434273 219.90136103 236.53030126 216.5701828 236.52634048 C214.19054758 236.53068466 211.81091376 236.53586682 209.43128204 236.54182816 C203.62589197 236.55386397 197.82055571 236.55636573 192.01515467 236.55402789 C187.29792631 236.55224734 182.58071201 236.55398871 177.86348534 236.55825233 C177.19298506 236.55884752 176.52248479 236.55944271 175.83166633 236.56005594 C174.46969259 236.56126765 173.10771885 236.56248178 171.74574511 236.56369831 C158.96299701 236.57458356 146.18027526 236.57240673 133.39752566 236.56631347 C121.69523339 236.56114362 109.99302435 236.57239976 98.29074854 236.59141169 C86.28428109 236.61076876 74.27785305 236.61904983 62.27136987 236.61528844 C55.52686637 236.61337312 48.7824337 236.61589596 42.03794289 236.63000298 C35.69735713 236.6425302 29.35693855 236.64068577 23.01635551 236.62759209 C20.68424296 236.62521559 18.35211882 236.62799906 16.02001953 236.63621521 C12.84615955 236.64659383 9.67286982 236.63865371 6.49903107 236.62590408 C5.10177098 236.63696551 5.10177098 236.63696551 3.67628342 236.6482504 C2.82856194 236.64104386 1.98084046 236.63383731 1.10743046 236.62641239 C0.37451521 236.62646741 -0.35840005 236.62652242 -1.11352485 236.62657911 C-3.64551379 236.13270188 -4.520137 235.31870135 -6.03553009 233.25168228 C-6.32858095 230.14610149 -6.43553064 227.24142987 -6.40975189 224.13472366 C-6.4137263 223.19027093 -6.4177007 222.24581819 -6.42179555 221.27274567 C-6.43145347 218.09426807 -6.41957926 214.91623169 -6.40784454 211.73776627 C-6.41027134 209.46473397 -6.41398956 207.19170274 -6.41890717 204.91867447 C-6.42833464 198.73497405 -6.41887537 192.55143138 -6.40557504 186.36774325 C-6.39428466 179.90775567 -6.39836614 173.44777613 -6.40032196 166.98778152 C-6.40120564 156.13895092 -6.3901791 145.2901921 -6.37171173 134.44137955 C-6.35270263 123.2714385 -6.34562519 112.10156999 -6.35120392 100.93161392 C-6.357902 87.48061251 -6.35462395 74.02966505 -6.34210014 60.57866478 C-6.33744481 55.43633873 -6.33658432 50.29403238 -6.33868599 45.15170479 C-6.34056374 39.10168186 -6.33250466 33.05175253 -6.3166256 27.00175095 C-6.31236772 24.77565078 -6.31154221 22.54954115 -6.3143158 20.32343864 C-6.3175166 17.29607398 -6.30850914 14.26899276 -6.2962265 11.24165726 C-6.30000583 10.35072024 -6.30378515 9.45978323 -6.307679 8.54184812 C-6.26657145 2.85523673 -6.13658249 0.00270608 0 0 Z M2.96446991 8.25168228 C2.96446991 67.65168228 2.96446991 127.05168228 2.96446991 188.25168228 C3.62446991 188.25168228 4.28446991 188.25168228 4.96446991 188.25168228 C4.96446991 187.59168228 4.96446991 186.93168228 4.96446991 186.25168228 C5.56130585 185.98484634 6.15814178 185.71801041 6.77306366 185.44308853 C9.01021315 184.22681296 10.30867058 183.04810969 12.02696991 181.18918228 C14.97696147 178.13790346 18.08875891 175.46658666 21.40196991 172.81418228 C25.56183842 169.46696568 29.35894145 165.97062839 33.07775116 162.14621353 C35.55446352 159.65924563 38.18123412 157.38113928 40.83946991 155.09152603 C44.93824675 151.54276888 48.94085168 147.88513147 52.96446991 144.25168228 C55.49866279 141.96322932 58.03349041 139.67644183 60.58556366 137.40793228 C62.13189728 136.0063294 63.64754766 134.56983975 65.12462616 133.09543228 C66.12816132 132.12090103 66.12816132 132.12090103 67.15196991 131.12668228 C67.7230246 130.54660416 68.29407928 129.96652603 68.88243866 129.36886978 C72.26486745 127.55390799 74.33486484 128.2080749 77.96446991 129.25168228 C80.55259505 131.02968409 82.69827268 133.14872473 84.90196991 135.37668228 C86.13960257 136.57657039 87.37787802 137.77579586 88.61681366 138.97433853 C89.49248993 139.83502945 89.49248993 139.83502945 90.38585663 140.71310806 C93.96800113 144.20439706 97.80624575 147.40773148 101.60753632 150.65549088 C102.85762362 151.72363904 104.10745307 152.79208904 105.35704803 153.86081314 C106.61359395 154.93472528 107.87136023 156.00721156 109.13048553 157.0780983 C109.71120819 157.57366226 110.29193085 158.06922623 110.89025116 158.57980728 C111.41014618 159.02227798 111.9300412 159.46474869 112.46569061 159.92062759 C114.02804674 161.30814439 115.5013636 162.76044456 116.96446991 164.25168228 C120.15892686 162.85454616 122.15381803 161.2263533 124.52696991 158.68918228 C127.56129338 155.57103772 130.68927609 152.77832815 134.08946991 150.06418228 C139.32622196 145.86600396 144.23066397 141.37995627 149.10558319 136.76852798 C157.88713717 128.4841147 157.88713717 128.4841147 161.44493866 127.71652603 C165.03091632 128.47819881 166.662875 130.27574858 169.27696991 132.81418228 C170.25164117 133.74318621 171.22690441 134.67156945 172.20275116 135.59933853 C173.11411835 136.47461197 174.02548553 137.34988541 174.96446991 138.25168228 C176.2887838 139.42857718 177.62106312 140.59662943 178.96446991 141.75168228 C183.1431507 145.38233936 187.22263295 149.11886805 191.31212616 152.84933853 C193.48907987 154.82110073 195.68285665 156.76533565 197.90196991 158.68918228 C200.67439737 161.09607671 203.39025389 163.55610458 206.0858078 166.04880142 C211.13090586 170.7138174 216.24794669 175.27871541 221.46446991 179.75168228 C222.05179901 180.25594742 222.63912811 180.76021255 223.24425507 181.27975845 C226.09136736 183.70832302 228.96777694 186.00416256 231.96446991 188.25168228 C231.96446991 128.85168228 231.96446991 69.45168228 231.96446991 8.25168228 C156.39446991 8.25168228 80.82446991 8.25168228 2.96446991 8.25168228 Z M69.76915741 140.06808853 C69.13993378 140.66379654 68.51071014 141.25950455 67.86241913 141.87326431 C66.86105927 142.83401871 66.86105927 142.83401871 65.83946991 143.81418228 C64.46531686 145.11585822 63.0903266 146.41665095 61.71446991 147.71652603 C61.0583371 148.33769302 60.40220428 148.95886002 59.72618866 149.59885025 C57.80183231 151.40426772 55.84013531 153.15628251 53.83946991 154.87668228 C50.30287265 157.91908255 46.88423758 161.07953462 43.46446991 164.25168228 C39.33310401 168.0822006 35.17337033 171.86431148 30.91368866 175.55246353 C25.98611351 179.84804508 21.16131171 184.26221198 16.31603241 188.65011978 C15.45751678 189.42613541 14.59900116 190.20215103 13.71446991 191.00168228 C12.94618866 191.69777603 12.17790741 192.39386978 11.38634491 193.11105728 C8.62862438 195.5485264 5.79192899 197.89546638 2.96446991 200.25168228 C2.96446991 209.16168228 2.96446991 218.07168228 2.96446991 227.25168228 C78.53446991 227.25168228 154.10446991 227.25168228 231.96446991 227.25168228 C235.02944672 201.48605443 235.02944672 201.48605443 226.90196991 193.43918228 C224.94746841 192.33196468 222.96928494 191.264956 220.96446991 190.25168228 C218.95665741 188.45090103 218.95665741 188.45090103 217.27696991 186.62668228 C214.40753327 183.66250009 211.38882202 180.96024993 208.26525116 178.26730728 C205.45673507 175.80687553 202.71001617 173.28175745 199.96446991 170.75168228 C195.35686372 166.51348022 190.70130496 162.34475284 185.96446991 158.25168228 C184.77158978 157.216724 183.57890026 156.18154603 182.38634491 155.14621353 C179.80760257 152.90844353 177.22859119 150.67098731 174.64806366 148.43527603 C174.04333221 147.91046646 173.43860077 147.38565689 172.81554413 146.844944 C171.54305685 145.74968523 170.26296577 144.66321836 168.97667694 143.58420181 C168.0289743 142.78731949 168.0289743 142.78731949 167.06212616 141.97433853 C166.49115204 141.49875504 165.92017792 141.02317154 165.33190155 140.53317642 C163.96446991 139.25168228 163.96446991 139.25168228 162.96446991 137.25168228 C159.51667905 138.75174619 157.14086458 140.75577491 154.40196991 143.31418228 C150.94765944 146.48650822 147.4442973 149.51626761 143.77696991 152.43918228 C138.26852063 156.88376797 133.12984673 161.6782333 128.00279999 166.55514908 C127.39202606 167.13434097 126.78125214 167.71353287 126.15196991 168.31027603 C125.33792694 169.08842667 125.33792694 169.08842667 124.50743866 169.88229752 C120.66663286 173.29101266 120.66663286 173.29101266 117.59337616 173.11886978 C114.38192563 172.05952057 112.48119501 170.56299376 109.90196991 168.37668228 C108.94161835 167.56457291 107.98126678 166.75246353 106.99181366 165.91574478 C103.41668186 162.79777616 99.9318019 159.583028 96.45983124 156.35104752 C92.25605584 152.45724679 87.85192548 148.8532159 83.38243866 145.26730728 C81.25801695 143.49638385 79.32035549 141.67724288 77.40196991 139.68918228 C76.59759491 138.88480728 75.79321991 138.08043228 74.96446991 137.25168228 C72.25683067 137.25168228 71.7061419 138.21669685 69.76915741 140.06808853 Z " fill="#373D43" transform="translate(394.03553009033203,295.74831771850586)"/>
<path d="M0 0 C0.64582031 0.350625 1.29164063 0.70125 1.95703125 1.0625 C8.34867341 5.07294214 12.71785596 11.88508034 15 19 C16.20677603 29.59410109 15.39163058 38.14396752 9 47 C2.99224106 53.95755702 -3.98879209 58.28931532 -13.171875 59.375 C-22.89688561 59.74025861 -30.14655073 57.58275941 -37.75 51.5 C-44.85830428 44.63158521 -48.55077284 36.93895988 -48.75 27 C-48.58620019 18.32273075 -45.7710085 11.43979847 -40.171875 4.84765625 C-29.14802572 -5.75047528 -13.31034961 -7.26453551 0 0 Z " fill="#E9E9E9" transform="translate(480,334)"/>
<path d="M0 0 C0.64582031 0.350625 1.29164063 0.70125 1.95703125 1.0625 C8.34867341 5.07294214 12.71785596 11.88508034 15 19 C16.20677603 29.59410109 15.39163058 38.14396752 9 47 C2.99224106 53.95755702 -3.98879209 58.28931532 -13.171875 59.375 C-22.89688561 59.74025861 -30.14655073 57.58275941 -37.75 51.5 C-44.85830428 44.63158521 -48.55077284 36.93895988 -48.75 27 C-48.58620019 18.32273075 -45.7710085 11.43979847 -40.171875 4.84765625 C-29.14802572 -5.75047528 -13.31034961 -7.26453551 0 0 Z M-34.5234375 12.1640625 C-39.73649323 18.64590428 -39.84307241 24.91813344 -39 33 C-37.48419484 39.42548855 -34.4521415 43.07216369 -29.09765625 46.80859375 C-22.6420107 50.47520808 -15.98200049 51.36896709 -8.75390625 49.3828125 C-2.61800224 46.67966571 1.60871245 41.74288486 5.16796875 36.171875 C7.31003304 30.58038325 7.10971533 23.07195874 5.08984375 17.48046875 C1.5452434 11.51961349 -3.38398497 7.20859586 -10 5 C-19.70830247 4.01320692 -27.82846517 4.67425328 -34.5234375 12.1640625 Z " fill="#353B42" transform="translate(480,334)"/>
<path d="M0 0 C0.99 0.33 1.98 0.66 3 1 C1.02 2.98 -0.96 4.96 -3 7 C-3.99 6.67 -4.98 6.34 -6 6 C-4.02 4.02 -2.04 2.04 0 0 Z " fill="#3A4449" transform="translate(410,472)"/>
</svg>
